<svg xmlns="http://www.w3.org/2000/svg" width="640" height="720" viewBox="0 0 640 720" role="img" aria-labelledby="title desc">
  <title id="title">柴 由佳子 講師写真の仮画像</title>
  <desc id="desc">講師写真を差し替えるためのやわらかな人物シルエット仮画像</desc>
  <rect width="640" height="720" fill="#fffaf1"/>
  <circle cx="320" cy="230" r="106" fill="#d9c1a9"/>
  <path d="M144 612c24-120 96-198 176-198s152 78 176 198" fill="#b7796c"/>
  <path d="M217 353c-48-52-61-147-3-207 55-57 158-66 219 8 45 55 38 145-7 195 9-66-13-133-63-159-42-23-100-13-133 23-30 34-36 85-13 140z" fill="#5d4632" opacity=".76"/>
  <path d="M270 470c28 38 72 38 100 0" fill="none" stroke="#fffdf8" stroke-width="12" stroke-linecap="round" opacity=".5"/>
  <path d="M124 612h392" stroke="#eadfce" stroke-width="8" stroke-linecap="round"/>
  <text x="320" y="668" text-anchor="middle" fill="#5d4632" font-family="serif" font-size="30" font-weight="700">Yukako Shiba</text>
</svg>
